<svg width="28" height="25" viewBox="0 0 28 25" fill="none" xmlns="http://www.w3.org/2000/svg">
<path d="M19.9993 0C17.6793 0 15.4527 1.08 13.9993 2.78667C12.546 1.08 10.3193 0 7.99935 0C3.89268 0 0.666016 3.22667 0.666016 7.33333C0.666016 12.3733 5.19935 16.48 12.066 22.72L13.9993 24.4667L15.9327 22.7067C22.7993 16.48 27.3327 12.3733 27.3327 7.33333C27.3327 3.22667 24.106 0 19.9993 0ZM14.1327 20.7333L13.9993 20.8667L13.866 20.7333C7.51935 14.9867 3.33268 11.1867 3.33268 7.33333C3.33268 4.66667 5.33268 2.66667 7.99935 2.66667C10.0527 2.66667 12.0527 3.98667 12.7593 5.81333H15.2527C15.946 3.98667 17.946 2.66667 19.9993 2.66667C22.666 2.66667 24.666 4.66667 24.666 7.33333C24.666 11.1867 20.4794 14.9867 14.1327 20.7333Z" fill="#002F52"/>
</svg>
