<svg width="22" height="28" viewBox="0 0 22 28" fill="none" xmlns="http://www.w3.org/2000/svg">
<path d="M18.9997 5.99935H16.333C16.333 3.05268 13.9463 0.666016 10.9997 0.666016C8.05301 0.666016 5.66634 3.05268 5.66634 5.99935H2.99967C1.53301 5.99935 0.333008 7.19935 0.333008 8.66602V24.666C0.333008 26.1327 1.53301 27.3327 2.99967 27.3327H18.9997C20.4663 27.3327 21.6663 26.1327 21.6663 24.666V8.66602C21.6663 7.19935 20.4663 5.99935 18.9997 5.99935ZM10.9997 3.33268C12.4663 3.33268 13.6663 4.53268 13.6663 5.99935H8.33301C8.33301 4.53268 9.53301 3.33268 10.9997 3.33268ZM18.9997 24.666H2.99967V8.66602H5.66634V11.3327C5.66634 12.066 6.26634 12.666 6.99967 12.666C7.73301 12.666 8.33301 12.066 8.33301 11.3327V8.66602H13.6663V11.3327C13.6663 12.066 14.2663 12.666 14.9997 12.666C15.733 12.666 16.333 12.066 16.333 11.3327V8.66602H18.9997V24.666Z" fill="#002F52"/>
</svg>
